/* XPM */
static char * Math [] = {
/* width height ncolors cpp [x_hot y_hot] */
"32 32 25 1 0 0",
/* colors */
" 	s none	m none	c none",
".	s iconColor1	m black	c black",
"X	c #989800006666",
"o	c #777777777777",
"O	c #CBCB0000CBCB",
"+	c #BABABABABABA",
"@	c #555555555555",
"#	c #222222222222",
"$	c #989800003333",
"%	c #00000000FEFE",
"&	c #00006A6AFEFE",
"*	c #878787878787",
"=	c #444444444444",
"-	c #CBCB66660000",
";	c #A9A9A9A9A9A9",
":	c #00000000CBCB",
"?	c #FEFECBCB0000",
">	c #333300006666",
",	c #555500000000",
"<	c #FEFE98980000",
"1	c #333300003333",
"2	c #000055550000",
"3	c #000087870000",
"4	c #111111111111",
"5	c #666600006666",
/* pixels */
"             .                  ",
"            .X.        o.       ",
"    ..o    o.OO.   +o....       ",
"    .@#..o+.XOO$.o...%&%.       ",
"    @.**=...OOOO$.%&&&%..       ",
"    o.=***.XOOOOX.&&&&.-.       ",
"    ;..***.OOOOOO$.&&:.?.       ",
"     .>.*.XOOOOOOO.%&.??.       ",
"     o>>..OOOOOOOOO..???.       ",
"     ;.>.OOOOOOOOOO,.???.o      ",
"     o......................o   ",
"   o..$.=.>>>>.??????.,OOO$$...o",
" *..$OO.*=.>>>.?????<..OOOOOOOO.",
"..$OOO.@**.1>>.?????.&%.OOOOOO. ",
".OOOO@.****.>>.????-%&&%.OOOO.  ",
" .OOO.*****=.>.???-.&&&&.,OO..  ",
"  .o.@******.>.??<.&&&&&%.,.**. ",
"   ..*******=1.??.&&&&%....****.",
"  ..o********..?.&&&%.233.***@. ",
" .33.....=@o*=..&&%..3....*o..  ",
" *..3333@...........==@**4#.o   ",
"   o.....%%&&&&.=********..     ",
"     o.&&&&&&&.<.*******=.      ",
"      .%&&&&&.??..******..o     ",
"      .%&&&&.???.>.*****.$=     ",
"      =.&&&.???<.>>.***=.O.     ",
"      o.&&.??<....>>.**.$O.     ",
"       .&.?<..o .<..5.*.OO.     ",
"       .=?..o    .<...=.=..     ",
"       ...o       .  o.         ",
"       o                        ",
"                                "};
